<svg xmlns="http://www.w3.org/2000/svg" xmlns:xlink="http://www.w3.org/1999/xlink" viewBox="0 0 500 500"><defs><clipPath id="freepik--clip-path--inject-184"><path d="M68.92,199.83S46,189,46,170.61c0,0-.68-11.44,4.4-14.52,0,0,2-8.36,9.41-9.08,0,0,3.22-5.32,13-5.81,7.81-.39,11.37,3.45,11.37,3.45s7.11.17,11.06,6.1c0,0,5.83,2.69,7.33,10.76,0,0,1.52,11.83-3.47,21.43-5.22,10-16.63,16.89-16.63,16.89Z" style="fill:none"></path></clipPath></defs><g id="freepik--background-complete--inject-184"><polygon points="210.91 190.24 77.22 13.16 12.24 13.16 12.24 31.82 197.93 194.96 210.91 190.24" style="fill:#f5f5f5"></polygon><polygon points="248.51 186.16 242.35 13.16 179.19 13.16 235.14 182.71 248.51 186.16" style="fill:#f5f5f5"></polygon><polygon points="274.2 188.62 409.25 13.16 340.6 13.16 266.43 177.21 274.2 188.62" style="fill:#f5f5f5"></polygon><polygon points="290.21 202.95 489.23 161.9 489.23 97.78 292.01 189.26 290.21 202.95" style="fill:#f5f5f5"></polygon><polygon points="311.44 252.06 489.23 327.06 489.23 262.01 319.8 241.06 311.44 252.06" style="fill:#f5f5f5"></polygon><polygon points="252.34 276.88 241.45 490.15 307.27 490.15 265.46 281.18 252.34 276.88" style="fill:#f5f5f5"></polygon><polygon points="290.3 270.43 431.65 490.15 489.23 490.15 489.23 464.22 303.75 267.28 290.3 270.43" style="fill:#f5f5f5"></polygon><polygon points="217.67 267.08 80.67 490.15 145.28 490.15 226.24 277.92 217.67 267.08" style="fill:#f5f5f5"></polygon><polygon points="199.07 247.35 12.24 320.73 12.24 387.92 199.67 261.15 199.07 247.35" style="fill:#f5f5f5"></polygon><polygon points="195.08 223.37 12.24 138.57 12.24 206.31 186.35 234.07 195.08 223.37" style="fill:#f5f5f5"></polygon><path d="M104.85,260.62c-1.32-22.27-18.52-15.79-18.52-15.79-2.62-15.93-9.24-6.5-9.24-6.5s-10-30.34-24.31-26.14-9.23,30.09-9.23,30.09-8-6.33-13.56-3.16c-5.4,3.09,0,16.66.29,17.41v0h-.16c-3.9-.16-.3,5.06-.3,5.06l92,1.5h0C121.59,258.43,104.85,260.62,104.85,260.62Z" style="fill:#e0e0e0;fill-rule:evenodd"></path><path d="M313.09,71.14A33,33,0,0,0,309.15,63a11.28,11.28,0,0,0-7.41-4.83c-3-.37-6.35,1.26-7.33,4.13-.43-6.47-1.35-13.11-4.59-18.73s-9.28-10-15.75-9.63c-6.11.37-11.33,4.91-14.24,10.29s-3.9,11.55-4.85,17.59c-2.31-2.84-7.2-1.95-9.61.81s-3,6.6-3.54,10.22h71.59Z" style="fill:#e0e0e0"></path><path d="M333.06,454.67,385.67,379H396l22.79-20.14,11.17,3.28,15.19,19.67,7.84-1.87L489,447.83s-4.5,35.37-3.16,36.31c.6.41,6.91-6.12-48.35-5.29-69.55,1-147,10-147,10Z" style="fill:#e0e0e0;fill-rule:evenodd"></path><polygon points="385.67 378.98 380.85 401.84 395.95 378.98 385.67 378.98" style="fill:#f5f5f5;fill-rule:evenodd"></polygon><path d="M418.74,358.84,409,367.48l6.19-1.75s-10.39,20.61-9.91,20.28S423.8,365.4,423.8,365.4l6.11-3.28Z" style="fill:#f5f5f5;fill-rule:evenodd"></path><polygon points="445.1 381.79 442.68 394.42 448.5 385.35 452.94 379.92 445.1 381.79" style="fill:#f5f5f5;fill-rule:evenodd"></polygon><path d="M165.35,453.25l-52.6-72.2H102.47L79.68,361.84,68.51,365,53.32,383.73l-7.85-1.79L9.4,446.73s4.49,33.73,3.15,34.63c-.59.39-6.91-5.84,48.35-5,69.56,1,147,9.53,147,9.53Z" style="fill:#e0e0e0;fill-rule:evenodd"></path><path d="M102.47,381.05c.49,0,13.88,12.48,13.88,12.48l-3.6-12.48Z" style="fill:#f5f5f5;fill-rule:evenodd"></path><polygon points="68.51 364.96 77.91 365.69 90.97 377.68 86.14 367.28 79.68 361.83 68.51 364.96" style="fill:#f5f5f5;fill-rule:evenodd"></polygon><circle cx="252.53" cy="228.85" r="79.42" style="fill:#f5f5f5"></circle></g><g id="freepik--Moon--inject-184"><path d="M334.6,77.36a43.76,43.76,0,1,0,48.73-38.14A43.76,43.76,0,0,0,334.6,77.36Z" style="fill:#f5f5f5"></path><path d="M375.54,99.56a7.26,7.26,0,1,0,8.09-6.34A7.26,7.26,0,0,0,375.54,99.56Z" style="fill:#e0e0e0"></path><path d="M374.75,99.53a7,7,0,0,0,6.07,8c4,.48,7.37-2.65,7.85-6.62a6.77,6.77,0,0,0-6.1-7.73A7,7,0,0,0,374.75,99.53Z" style="fill:#ebebeb"></path><path d="M369.24,39.79a43.81,43.81,0,0,0-23,25.91,5.42,5.42,0,0,1,1.44,4c-.26,1.83-2.3,2.36-3,2.5-.1.63-.21,1.26-.29,1.9a43.5,43.5,0,0,0-.09,9.67c.13.1,3.73,2.8,3.93,5.31a8.3,8.3,0,0,1-1.61,5c.27.74.54,1.47.85,2.2a44.07,44.07,0,0,0,10.89,15.4,6.73,6.73,0,0,1,5.34,0c2.54,1.29,1.7,5,1.7,5l-.31.1a43.71,43.71,0,0,0,31.53,5.49,43.76,43.76,0,1,1-27.31-82.51Z" style="fill:#e0e0e0"></path><path d="M345.87,74.47a1.05,1.05,0,0,0,.91,1.18,1.06,1.06,0,1,0,.26-2.1A1,1,0,0,0,345.87,74.47Z" style="fill:#e0e0e0"></path><path d="M396.4,103.19a14.73,14.73,0,0,1,2.66-5.45c.77-1.07,1.85-2.21,3.15-2l1.11.18A4.24,4.24,0,0,1,407.93,97a5.23,5.23,0,0,1,1,4.41,10.05,10.05,0,0,1-2.08,4.15,19.22,19.22,0,0,1-3.77,3.66,4.92,4.92,0,0,1-2.67,1.14,3.69,3.69,0,0,1-2.8-1.4A6.77,6.77,0,0,1,396.4,103.19Z" style="fill:#e0e0e0"></path><path d="M395.36,103.06A14.83,14.83,0,0,1,398,97.61a4.92,4.92,0,0,1,3.15-2l1.71-.28c1.71.06,2.9.31,4,1.58a5.19,5.19,0,0,1,1,4.4,10,10,0,0,1-2.08,4.15,19,19,0,0,1-3.77,3.66,4.17,4.17,0,0,1-2.5,1,3.29,3.29,0,0,1-2.51-1.52A6.46,6.46,0,0,1,395.36,103.06Z" style="fill:#ebebeb"></path><path d="M380.56,118.79a13.39,13.39,0,0,1-4.68-.58c-1-.27-2-.72-2.17-1.58l-.08-.75a2.45,2.45,0,0,1-.07-3.15,4.65,4.65,0,0,1,3.16-1.54,9,9,0,0,1,3.57.48,14.7,14.7,0,0,1,3.54,1.65,3.16,3.16,0,0,1,1.4,1.45,2.28,2.28,0,0,1-.51,2.07A6,6,0,0,1,380.56,118.79Z" style="fill:#e0e0e0"></path><path d="M379.64,119a13.39,13.39,0,0,1-4.68-.58,3.48,3.48,0,0,1-2.17-1.58l-.56-1a2.87,2.87,0,0,1,.41-2.86,4.56,4.56,0,0,1,3.16-1.54,8.78,8.78,0,0,1,3.57.47,14.7,14.7,0,0,1,3.54,1.65,2.63,2.63,0,0,1,1.23,1.39c.24.67-.17,1.28-.66,1.89A5.51,5.51,0,0,1,379.64,119Z" style="fill:#ebebeb"></path><path d="M357.72,55.41a14.75,14.75,0,0,1,5-3.47c1.19-.56,2.68-1,3.74-.25l.89.7a4.22,4.22,0,0,1,3.48,3.22A5.19,5.19,0,0,1,369.56,60a10,10,0,0,1-3.84,2.62,18.56,18.56,0,0,1-5.07,1.36,4.87,4.87,0,0,1-2.88-.29A3.72,3.72,0,0,1,356,61.05,6.83,6.83,0,0,1,357.72,55.41Z" style="fill:#e0e0e0"></path><path d="M356.09,55.87a14.73,14.73,0,0,1,5-3.46,4.88,4.88,0,0,1,3.74-.25l1.63.59a4.86,4.86,0,0,1,2.74,3.32,5.24,5.24,0,0,1-1.25,4.35A10.1,10.1,0,0,1,364.09,63,19,19,0,0,1,359,64.4a4.26,4.26,0,0,1-2.66-.37,3.24,3.24,0,0,1-1.45-2.54A6.46,6.46,0,0,1,356.09,55.87Z" style="fill:#ebebeb"></path><path d="M407.31,80.67a2.27,2.27,0,0,1,.83-1.18,2.91,2.91,0,0,1,2-.23,2.09,2.09,0,0,1,1.38,1.1,3,3,0,0,1,.49,2.28,2.44,2.44,0,0,1-1.45,1.77,2.51,2.51,0,0,1-2.77-.82A3.19,3.19,0,0,1,407.31,80.67Z" style="fill:#e0e0e0"></path><path d="M406.87,80.69a2,2,0,0,1,.76-1.08,2.69,2.69,0,0,1,1.82-.22,1.94,1.94,0,0,1,1.27,1,2.8,2.8,0,0,1,.45,2.1,2.24,2.24,0,0,1-1.34,1.63,2.3,2.3,0,0,1-2.54-.75A2.93,2.93,0,0,1,406.87,80.69Z" style="fill:#ebebeb"></path><path d="M396.72,63.9A3.33,3.33,0,0,1,398,62.08a4.46,4.46,0,0,1,3-.36,3.25,3.25,0,0,1,2.13,1.69,4.63,4.63,0,0,1,.75,3.5,3.78,3.78,0,0,1-2.23,2.73,3.86,3.86,0,0,1-4.24-1.26A4.84,4.84,0,0,1,396.72,63.9Z" style="fill:#e0e0e0"></path><path d="M396,63.93a3.13,3.13,0,0,1,1.17-1.67,4.09,4.09,0,0,1,2.79-.33,3,3,0,0,1,2,1.55,4.28,4.28,0,0,1,.69,3.22,3.45,3.45,0,0,1-2.06,2.5,3.53,3.53,0,0,1-3.9-1.15A4.48,4.48,0,0,1,396,63.93Z" style="fill:#ebebeb"></path><path d="M380,47.71a2.31,2.31,0,0,1,.86-1.25,3.11,3.11,0,0,1,2.09-.25,2.24,2.24,0,0,1,1.46,1.16,3.21,3.21,0,0,1,.52,2.4,2.59,2.59,0,0,1-1.54,1.87,2.63,2.63,0,0,1-2.91-.86A3.33,3.33,0,0,1,380,47.71Z" style="fill:#e0e0e0"></path><path d="M379.48,47.73a2.09,2.09,0,0,1,.8-1.15,2.83,2.83,0,0,1,1.91-.22,2,2,0,0,1,1.34,1.06,2.9,2.9,0,0,1,.48,2.21,2.37,2.37,0,0,1-1.41,1.72,2.44,2.44,0,0,1-2.68-.79A3.07,3.07,0,0,1,379.48,47.73Z" style="fill:#ebebeb"></path><path d="M388.51,49.24a1.14,1.14,0,0,1,.44-.63,1.53,1.53,0,0,1,1-.12,1.13,1.13,0,0,1,.73.58,1.65,1.65,0,0,1,.26,1.2,1.24,1.24,0,0,1-2.23.5A1.67,1.67,0,0,1,388.51,49.24Z" style="fill:#e0e0e0"></path><path d="M388.28,49.25a1,1,0,0,1,.4-.58,1.4,1.4,0,0,1,.95-.11,1,1,0,0,1,.68.53,1.5,1.5,0,0,1,.23,1.11,1.2,1.2,0,0,1-.7.86,1.23,1.23,0,0,1-1.34-.4A1.51,1.51,0,0,1,388.28,49.25Z" style="fill:#ebebeb"></path><circle cx="356.41" cy="80.39" r="6.41" style="fill:#fff"></circle><path d="M362.81,80.39c-.05,0,0-.57-.29-1.54a6.5,6.5,0,0,0-2.35-3.41,6.24,6.24,0,0,0-5.87-.85A6.17,6.17,0,0,0,351.45,84a6,6,0,0,0,2.85,2.16,6.24,6.24,0,0,0,5.87-.84,6.44,6.44,0,0,0,2.35-3.41c.26-1,.24-1.55.29-1.54a1.2,1.2,0,0,1,0,.41,5.68,5.68,0,0,1-.14,1.18,6.42,6.42,0,0,1-2.31,3.65,6.59,6.59,0,0,1-6.26,1,6.51,6.51,0,0,1-3.1-2.3,6.61,6.61,0,0,1,9.35-9.18,6.37,6.37,0,0,1,2.32,3.65,5.61,5.61,0,0,1,.14,1.18A1.2,1.2,0,0,1,362.81,80.39Z" style="fill:#263238"></path><circle cx="356.41" cy="80.39" r="4.68" style="fill:#263238"></circle><circle cx="399.23" cy="80.39" r="6.41" style="fill:#fff"></circle><path d="M405.64,80.39c-.06,0,0-.57-.3-1.54A6.41,6.41,0,0,0,403,75.44a6.2,6.2,0,0,0-9.92,5A6.18,6.18,0,0,0,394.27,84a6.07,6.07,0,0,0,2.86,2.16,6.25,6.25,0,0,0,5.87-.84,6.41,6.41,0,0,0,2.34-3.41c.26-1,.24-1.55.3-1.54s0,.14,0,.41a4.94,4.94,0,0,1-.13,1.18,6.4,6.4,0,0,1-2.32,3.65,6.61,6.61,0,0,1-9.36-1.3,6.62,6.62,0,0,1,0-7.88,6.58,6.58,0,0,1,9.36-1.3,6.37,6.37,0,0,1,2.32,3.65,4.89,4.89,0,0,1,.13,1.18C405.67,80.25,405.66,80.39,405.64,80.39Z" style="fill:#263238"></path><circle cx="399.23" cy="80.39" r="4.68" style="fill:#263238"></circle><path d="M371.32,81.65A13.1,13.1,0,0,0,373.83,87a6,6,0,0,0,4.8,2.2,6.19,6.19,0,0,0,4.43-2.6A10.3,10.3,0,0,0,384.78,81c0-.8-1.21-.8-1.25,0-.14,3-1.55,6.9-5.08,7s-5.16-3.82-5.93-6.65a.62.62,0,0,0-1.2.33Z" style="fill:#263238"></path><path d="M363.27,91.84c0,1.53-2.64,2.77-5.9,2.77s-5.91-1.24-5.91-2.77,2.64-2.77,5.91-2.77S363.27,90.31,363.27,91.84Z" style="fill:#FF725E;opacity:0.5"></path><path d="M406.3,91.13c0,1.53-2.65,2.77-5.91,2.77s-5.91-1.24-5.91-2.77,2.65-2.77,5.91-2.77S406.3,89.6,406.3,91.13Z" style="fill:#FF725E;opacity:0.5"></path><path d="M334.6,77.36s0-.24.1-.7.18-1.17.33-2.06c.07-.45.16-1,.25-1.52s.3-1.14.47-1.79.37-1.34.57-2.09.55-1.49.84-2.32a41.45,41.45,0,0,1,6.17-11,43.46,43.46,0,0,1,12.54-11.07l2.05-1.19c.72-.35,1.46-.67,2.2-1s1.48-.73,2.28-1l2.39-.82,1.22-.41,1.26-.3,2.57-.6c.87-.18,1.76-.25,2.65-.38a22.18,22.18,0,0,1,2.72-.29,41.74,41.74,0,0,1,5.59,0c.95.08,1.91.11,2.86.23l2.87.5c.49.09,1,.15,1.45.27l1.43.4c.95.27,1.93.51,2.88.83a45.19,45.19,0,0,1,5.62,2.4,47.78,47.78,0,0,1,5.4,3.19c.86.62,1.68,1.3,2.52,2,.42.34.86.64,1.25,1l1.17,1.12a49.69,49.69,0,0,1,4.45,4.81l1.92,2.72.49.68.42.72.84,1.46.84,1.47.71,1.54.7,1.56.35.78.28.81,1.11,3.26c.27,1.12.53,2.25.8,3.38A46.86,46.86,0,0,1,421.73,88a46.66,46.66,0,0,1-3.93,13.51l-1.58,3.1-1.86,2.9-.47.72-.53.67-1.05,1.34-1.06,1.33-1.17,1.22L408.92,114l-.59.6-.63.55c-.85.72-1.69,1.45-2.52,2.17a49.2,49.2,0,0,1-5.48,3.6l-1.4.81c-.47.27-1,.45-1.45.68-1,.43-1.94.91-2.93,1.29a45.32,45.32,0,0,1-6,1.81,47,47,0,0,1-6,1c-1,.09-2,.08-3,.12l-1.48,0c-.5,0-1-.06-1.48-.08l-2.9-.21c-1-.11-1.9-.32-2.83-.47a40,40,0,0,1-5.44-1.32,22.44,22.44,0,0,1-2.57-.93c-.83-.34-1.68-.63-2.48-1l-2.35-1.2-1.15-.59-1.09-.69L353,118.76c-.72-.44-1.32-1-2-1.5s-1.28-1-1.89-1.51l-1.71-1.64a43.69,43.69,0,0,1-9.51-13.76,41.12,41.12,0,0,1-3.34-12.21,22.24,22.24,0,0,1-.26-2.45c0-.77,0-1.49-.05-2.16s-.05-1.29,0-1.85.09-1.08.12-1.54l.18-2.07c0-.47.07-.71.07-.71s0,.24,0,.71-.07,1.18-.12,2.08c0,.46-.06,1-.1,1.53s0,1.18.05,1.85,0,1.38.08,2.15.19,1.58.28,2.44a41.66,41.66,0,0,0,3.4,12.11,43.45,43.45,0,0,0,9.51,13.61l1.7,1.63c.6.51,1.25,1,1.88,1.49s1.25,1.05,2,1.48l2.11,1.35,1.08.68,1.15.58,2.32,1.18c.79.38,1.64.66,2.46,1a24.08,24.08,0,0,0,2.55.91,40.38,40.38,0,0,0,5.39,1.3c.92.14,1.85.35,2.8.45l2.88.2c.48,0,1,.09,1.45.08l1.47,0c1,0,2,0,3-.11a47.64,47.64,0,0,0,6-1,46.41,46.41,0,0,0,5.94-1.79c1-.39,1.92-.86,2.88-1.28.48-.23,1-.41,1.44-.68l1.39-.8a49,49,0,0,0,5.41-3.57l2.49-2.15.62-.54.58-.6,1.15-1.2,1.15-1.21,1.05-1.31,1-1.33.52-.66.46-.71,1.84-2.87c.52-1,1-2,1.56-3.06a46.29,46.29,0,0,0,3.89-13.35,46.45,46.45,0,0,0-.57-13.9l-.78-3.34c-.37-1.08-.74-2.15-1.1-3.22l-.28-.8-.34-.77-.7-1.54-.69-1.53-.84-1.45-.82-1.44-.42-.72-.48-.67-1.9-2.69a49.71,49.71,0,0,0-4.39-4.76L406.75,50c-.38-.37-.82-.66-1.23-1-.84-.65-1.64-1.33-2.49-1.94a47.53,47.53,0,0,0-5.33-3.16,46.55,46.55,0,0,0-5.56-2.39c-.94-.32-1.91-.55-2.85-.83l-1.41-.39c-.47-.12-1-.18-1.43-.27l-2.84-.5c-.95-.13-1.9-.15-2.83-.23a41.19,41.19,0,0,0-5.55,0,23.61,23.61,0,0,0-2.68.28c-.89.13-1.77.2-2.63.37l-2.55.59-1.25.29-1.21.4-2.37.81c-.79.24-1.51.65-2.26,1s-1.47.65-2.18,1l-2,1.16A43.37,43.37,0,0,0,343.56,56,41.41,41.41,0,0,0,337.35,67a22,22,0,0,0-.86,2.3l-.59,2.07c-.18.64-.37,1.23-.5,1.78l-.27,1.51c-.16.89-.29,1.57-.38,2S334.6,77.36,334.6,77.36Z" style="fill:#263238"></path></g><g id="freepik--hot-air-balloon--inject-184"><path d="M68.92,199.83S48.23,190.61,46,170.61c0,0-.68-11.44,4.4-14.52,0,0,2-8.36,9.41-9.08,0,0,3.22-5.32,13-5.81,7.81-.39,11.37,3.45,11.37,3.45s7.11.17,11.06,6.1c0,0,5.83,2.69,7.33,10.76,0,0,1.52,11.83-3.47,21.43-5.22,10-16.63,16.89-16.63,16.89Z" style="fill:#FF725E"></path><g style="clip-path:url(#freepik--clip-path--inject-184)"><g style="opacity:0.30000000000000004"><path d="M69.32,199.61l2.28-.21C61.53,184.33,58.31,165.08,59.82,147l-4-1.58-6.05,6.06.62,4.6a51.94,51.94,0,0,0,18.91,43.52"></path></g><g style="opacity:0.30000000000000004"><path d="M80.45,199.39a112.86,112.86,0,0,0,3.74-54.74l6.68-1.5,4.38,7.6a46.22,46.22,0,0,1,.93,26.66s-4.07,16-14.6,22.88"></path></g></g><path d="M80.45,199.39a1.92,1.92,0,0,1,.12-.56l.42-1.55c.19-.68.42-1.5.66-2.47s.55-2.05.81-3.28c.59-2.43,1.18-5.36,1.72-8.62s1-6.88,1.26-10.68.32-7.45.27-10.76-.27-6.28-.53-8.77c-.1-1.25-.27-2.37-.38-3.36s-.24-1.83-.35-2.52-.16-1.18-.22-1.6a1.9,1.9,0,0,1,0-.57,3.93,3.93,0,0,1,.14.55c.09.42.19.94.32,1.58s.3,1.54.44,2.52.33,2.11.45,3.36c.31,2.49.53,5.48.65,8.8s0,7-.23,10.81-.76,7.44-1.3,10.72-1.2,6.2-1.84,8.63c-.29,1.22-.62,2.31-.89,3.27s-.52,1.78-.75,2.44-.38,1.13-.51,1.54A2.66,2.66,0,0,1,80.45,199.39Z" style="fill:#263238"></path><path d="M82.48,199.83s.52-.55,1.47-1.51a46.8,46.8,0,0,0,13-39.91,51.16,51.16,0,0,0-1.16-5.62,21.08,21.08,0,0,1-.54-2,1.86,1.86,0,0,1,.22.5c.12.34.32.83.51,1.48a41.13,41.13,0,0,1,1.33,5.62,45.54,45.54,0,0,1-.83,18.93,44.93,44.93,0,0,1-8.45,17,40,40,0,0,1-3.94,4.23c-.49.47-.9.8-1.17,1A2.56,2.56,0,0,1,82.48,199.83Z" style="fill:#263238"></path><path d="M70.43,206.06a25.24,25.24,0,0,1-.43-7.15,12.67,12.67,0,0,1,.48,3.56A12.06,12.06,0,0,1,70.43,206.06Z" style="fill:#263238"></path><path d="M82.1,205.38a9.18,9.18,0,0,1-.78-3,9.45,9.45,0,0,1-.26-3.06,17.87,17.87,0,0,1,1,6Z" style="fill:#263238"></path><polygon points="69.32 208.07 69.32 204.8 83.29 204.56 83.83 208.27 81.75 208.27 81.92 212.44 70.98 212.44 71.16 208.03 69.32 208.07" style="fill:#FF725E"></polygon><path d="M69.32,199.61a2.38,2.38,0,0,1-.41-.29l-1.12-.9a21.26,21.26,0,0,1-1.71-1.5c-.64-.62-1.41-1.28-2.15-2.12s-1.6-1.71-2.41-2.76-1.65-2.15-2.51-3.36a50.3,50.3,0,0,1-7.59-17.59c-.3-1.45-.59-2.83-.74-4.14s-.3-2.52-.38-3.64-.08-2.12-.1-3a20.1,20.1,0,0,1,0-2.28c0-.57.06-1,.09-1.43a1.82,1.82,0,0,1,.07-.5,1.66,1.66,0,0,1,0,.5c0,.39,0,.87,0,1.44s0,1.38,0,2.26,0,1.89.18,3,.21,2.31.43,3.6.48,2.66.78,4.09a52.68,52.68,0,0,0,7.52,17.43c.84,1.2,1.62,2.36,2.46,3.36s1.6,1.95,2.34,2.78,1.47,1.53,2.08,2.16,1.18,1.15,1.64,1.56l1.06,1C69.22,199.47,69.34,199.59,69.32,199.61Z" style="fill:#263238"></path><path d="M71.6,199.4s-.13-.14-.34-.44l-.89-1.32c-.39-.58-.85-1.29-1.33-2.15s-1.07-1.82-1.6-2.94c-.28-.56-.57-1.14-.88-1.74s-.56-1.26-.86-1.93c-.61-1.32-1.14-2.79-1.72-4.33a83,83,0,0,1-2.89-10.27,94.41,94.41,0,0,1-1.51-10.56c-.25-3.28-.33-6.23-.28-8.71,0-1.24.06-2.36.1-3.34s.11-1.83.17-2.52.12-1.17.16-1.59a2.08,2.08,0,0,1,.09-.55,2.17,2.17,0,0,1,0,.56c0,.42,0,1,0,1.59s-.08,1.54-.09,2.52-.06,2.1,0,3.33c0,2.47.13,5.41.4,8.66a98.38,98.38,0,0,0,1.54,10.5,86.61,86.61,0,0,0,2.83,10.22c.57,1.53,1.08,3,1.67,4.32.29.67.55,1.32.83,1.93l.84,1.75c.51,1.12,1.07,2.09,1.53,3s.88,1.6,1.24,2.19l.81,1.38A2.36,2.36,0,0,1,71.6,199.4Z" style="fill:#263238"></path><path d="M82.48,199.83a8,8,0,0,0-13.39,0Z" style="fill:#FF725E"></path><g style="opacity:0.7000000000000001"><path d="M82.48,199.83a8,8,0,0,0-13.39,0Z"></path></g><path d="M83.71,208.14a51.16,51.16,0,0,1-7.23.26,51.16,51.16,0,0,1-7.23-.26,51.16,51.16,0,0,1,7.23-.26A51.16,51.16,0,0,1,83.71,208.14Z" style="fill:#263238"></path><path d="M101.91,166.06a3.13,3.13,0,0,1,.09,1,22.07,22.07,0,0,1,0,2.63,35.16,35.16,0,0,1-1.65,8.52,34.76,34.76,0,0,1-3.7,7.86,26,26,0,0,1-1.51,2.15,4.28,4.28,0,0,1-.64.72c-.08,0,.73-1.16,1.84-3.07a40.36,40.36,0,0,0,5.29-16.21C101.82,167.43,101.82,166.06,101.91,166.06Z" style="fill:#fff"></path><path d="M95.46,171.47a17.46,17.46,0,0,1-.55,6.1,17.85,17.85,0,0,1-2.14,5.73c-.15-.07.9-2.59,1.64-5.85S95.3,171.47,95.46,171.47Z" style="fill:#fff"></path><path d="M83.94,177.21a22.83,22.83,0,0,1,.21-3.9,22.9,22.9,0,0,1,.34-3.89,10.79,10.79,0,0,1,.18,3.93A11.06,11.06,0,0,1,83.94,177.21Z" style="fill:#fff"></path></g><g id="freepik--Mountains--inject-184"><polyline points="113.68 437.78 109.81 427.16 106.77 435.68 104.36 429.51 104.34 429.17 100.47 418.55 96.08 430.82 95.94 430.74 93.82 419.93 92.62 429 87.92 426.53 84.86 410.9 83.13 424.01 82.63 423.75 81.61 419.77 81.58 419.2 77.28 401.44 73.84 419.13 63.78 413.84 60.72 398.21 58.84 412.44 54.55 394.7 50.96 413.16 50.19 413.21 48.36 406.1 48.33 405.53 44.04 387.76 38.95 413.91 36.63 414.06 33.6 398.58 31.6 413.76 27.7 397.62 24.35 414.82 20.17 415.08 18.41 408.22 18.36 407.4 12.24 382.07 12.24 482.96 186.07 486.3 141.21 454.55 140.79 454.32 140.05 452.42 138.33 453.03 138.13 452.93 140.03 452.07 136.16 441.45 133.02 450.24 131.12 449.24 127.61 435.56 123.76 437.71 127.58 434.99 123.29 417.22 118.36 442.53 114.66 440.59 113.7 438.13" style="fill:#455a64;fill-rule:evenodd"></polyline><polyline points="113.68 437.78 109.81 427.16 106.77 435.68 104.36 429.51 104.34 429.17 100.47 418.55 96.08 430.82 95.94 430.74 93.82 419.93 92.62 429 87.92 426.53 84.86 410.9 83.13 424.01 82.63 423.75 81.61 419.77 81.58 419.2 77.28 401.44 73.84 419.13 63.78 413.84 60.72 398.21 58.84 412.44 54.55 394.7 50.96 413.16 50.19 413.21 48.36 406.1 48.33 405.53 44.04 387.76 38.95 413.91 36.63 414.06 33.6 398.58 31.6 413.76 27.7 397.62 24.35 414.82 20.17 415.08 18.41 408.22 18.36 407.4 12.24 382.07 12.26 482.9 186.07 486.3 141.21 454.55 140.79 454.32 140.05 452.42 138.33 453.03 138.13 452.93 140.03 452.07 136.16 441.45 133.02 450.24 131.12 449.24 127.61 435.56 123.76 437.71 127.58 434.99 123.29 417.22 118.36 442.53 114.66 440.59 113.7 438.13" style="fill-rule:evenodd;opacity:0.30000000000000004"></polyline><polyline points="395.89 441.63 399.45 431.79 402.26 439.68 404.47 433.97 404.48 433.65 408.04 423.82 412.08 435.18 412.22 435.11 414.16 425.1 415.26 433.5 419.58 431.21 422.4 416.74 423.99 428.88 424.45 428.63 425.39 424.95 425.42 424.42 429.37 407.98 432.53 424.36 441.78 419.46 444.6 404.99 446.33 418.16 450.27 401.73 453.57 418.83 454.29 418.88 455.97 412.29 456 411.76 459.94 395.31 464.62 419.52 466.75 419.66 469.54 405.33 471.38 419.39 474.97 404.44 478.04 420.37 481.89 420.61 483.51 414.25 483.55 413.5 489.18 390.04 489.23 483.47 329.33 486.56 370.58 457.15 370.97 456.95 371.65 455.18 373.23 455.75 373.41 455.65 371.67 454.86 375.22 445.03 378.12 453.16 379.86 452.24 383.09 439.57 386.63 441.57 383.12 439.04 387.06 422.59 391.59 446.03 395 444.23 395.88 441.95" style="fill:#455a64;fill-rule:evenodd"></polyline><polyline points="395.89 441.63 399.45 431.79 402.26 439.68 404.47 433.97 404.48 433.65 408.04 423.82 412.08 435.18 412.22 435.11 414.16 425.1 415.26 433.5 419.58 431.21 422.4 416.74 423.99 428.88 424.45 428.63 425.39 424.95 425.42 424.42 429.37 407.98 432.53 424.36 441.78 419.46 444.6 404.99 446.33 418.16 450.27 401.73 453.57 418.83 454.29 418.88 455.97 412.29 456 411.76 459.94 395.31 464.62 419.52 466.75 419.66 469.54 405.33 471.38 419.39 474.97 404.44 478.04 420.37 481.89 420.61 483.51 414.25 483.55 413.5 489.18 390.04 489.23 483.47 329.33 486.56 370.58 457.15 370.97 456.95 371.65 455.18 373.23 455.75 373.41 455.65 371.67 454.86 375.22 445.03 378.12 453.16 379.86 452.24 383.09 439.57 386.63 441.57 383.12 439.04 387.06 422.59 391.59 446.03 395 444.23 395.88 441.95" style="fill-rule:evenodd;opacity:0.30000000000000004"></polyline><polygon points="403.27 466.1 399.97 451.24 397.18 461.12 395.57 456.11 386.14 481.06 403.27 480.29 403.27 466.1" style="fill:#263238;fill-rule:evenodd"></polygon><polygon points="447.09 477.67 443.65 470.65 439.03 468.31 443.06 469.09 437.85 456.38 435.38 455.36 437.53 455.36 430.54 437.63 425.87 456.38 430.81 452.48 430.97 454.65 425.87 457.65 425.87 458.37 431.24 455.36 425.49 459.84 420.96 479.27 447.09 477.67" style="fill:#263238;fill-rule:evenodd"></polygon><polygon points="322.38 486.52 321 483.71 319.15 482.77 320.77 483.08 318.68 478 317.69 477.59 318.55 477.59 315.76 470.5 313.89 478 315.87 476.44 315.93 477.31 313.89 478.51 313.89 478.79 316.04 477.59 313.74 479.38 311.93 487.16 322.38 486.52" style="fill:#263238;fill-rule:evenodd"></polygon><polygon points="419.81 479.33 415.71 470.16 409.8 467.3 409.66 466.24 414.96 468.58 414.75 467.36 409.8 464.91 414.37 466.08 406.69 445.32 404.41 455.36 407.28 454.71 404.43 455.59 404 458.45 407.01 455.94 407.06 456.55 403.96 458.85 400.02 480.42 419.81 479.33" style="fill:#263238;fill-rule:evenodd"></polygon><polygon points="467.26 473.76 463.16 464.59 457.25 461.73 457.11 460.67 462.41 463.01 462.19 461.79 457.25 459.34 461.82 460.51 454.13 439.75 451.85 449.79 454.73 449.14 451.88 450.02 451.44 452.88 454.46 450.37 454.51 450.98 451.41 453.28 447.46 474.85 467.26 473.76" style="fill:#263238;fill-rule:evenodd"></polygon><polygon points="383.51 480.42 377.64 459.61 375.51 470.02 378.06 471.46 375.51 470.35 373.19 480.79 383.51 480.42" style="fill:#263238;fill-rule:evenodd"></polygon><polygon points="485.97 462.87 481.09 444.49 478.95 454.89 481.21 453.09 478.95 455.22 476.64 465.66 485.97 462.87" style="fill:#263238;fill-rule:evenodd"></polygon><polygon points="373.31 479.75 369.38 478.17 357.13 481.06 347.86 481.06 342.92 483.18 373.19 480.79 373.31 479.75" style="fill:#263238;fill-rule:evenodd"></polygon><path d="M459.63,467.75h-.72l-7.51,2.67-37.16,2.38-3.9,1.62h-3.76l-7.2,3.63c-45.63,4.74-100,8.92-151.72,9.2-95.4.52-196.32-26.33-235.27-38.7v40.72l476.84.88V460.68Z" style="fill:#263238;fill-rule:evenodd"></path><polygon points="114.5 472.22 116.96 457.18 120.31 466.88 121.63 461.77 132.46 486.11 115.31 486.38 114.5 472.22" style="fill:#263238;fill-rule:evenodd"></polygon><polygon points="92.69 467.27 86.7 463.15 92.24 465.82 92.2 465.11 92.12 463.84 86.4 445.41 80.43 463.53 82.57 463.4 80.16 464.57 75.68 477.57 79.66 476.55 75.18 479.17 72.14 486.39 98.31 486.39 92.69 467.27" style="fill:#263238;fill-rule:evenodd"></polygon><polygon points="196.42 487.67 197.63 484.78 199.42 483.74 197.83 484.14 199.63 478.94 200.59 478.48 199.73 478.53 202.12 471.28 204.41 478.65 202.35 477.21 202.33 478.09 204.44 479.16 204.46 479.45 202.24 478.38 204.64 480.02 206.89 487.67 196.42 487.67" style="fill:#263238;fill-rule:evenodd"></polygon><polygon points="99.47 486.38 103.04 476.98 108.78 473.77 108.86 472.7 103.7 475.36 103.85 474.12 108.64 471.38 104.15 472.82 110.64 451.63 113.49 461.52 110.59 461.04 113.48 461.75 114.07 464.58 110.92 462.25 110.91 462.87 114.13 464.97 119.29 486.27 99.47 486.38" style="fill:#263238;fill-rule:evenodd"></polygon><polygon points="209.13 489.19 212.19 481.13 217.11 478.37 217.19 477.45 212.76 479.74 212.88 478.67 217 476.32 213.14 477.56 218.71 459.38 221.16 467.86 218.66 467.45 221.15 468.06 221.65 470.49 218.95 468.49 218.94 469.02 221.71 470.82 226.13 489.09 209.13 489.19" style="fill:#263238;fill-rule:evenodd"></polygon><polygon points="300.68 470.25 300.62 469.91 300.11 467.47 300.12 467.27 297.67 458.74 292.07 477.01 295.94 475.77 291.81 478.14 291.68 479.2 291.11 480.6 288.03 488.71 305.12 488.61 300.68 470.25" style="fill:#263238;fill-rule:evenodd"></polygon><polygon points="290.85 477.49 290.81 477.28 290.4 475.8 290.41 475.68 288.48 470.5 284.06 481.6 287.11 480.84 283.85 482.28 283.75 482.93 283.3 483.78 280.87 488.71 294.36 488.65 290.85 477.49" style="fill:#263238;fill-rule:evenodd"></polygon><polygon points="66.45 451.04 66.39 450.65 65.8 447.81 62.91 447.11 65.81 447.58 62.97 437.7 56.47 458.89 60.96 457.44 56.17 460.19 56.02 461.43 61.18 458.77 61.1 459.84 55.36 463.05 51.79 472.45 71.61 472.34 66.45 451.04" style="fill:#263238;fill-rule:evenodd"></polygon><polygon points="135.05 487.46 139.73 466.33 142.45 476.59 139.98 478.18 142.47 476.92 145.37 487.2 135.05 487.46" style="fill:#263238;fill-rule:evenodd"></polygon><polygon points="21.29 462.72 25.41 431.83 28.41 446.96 25.98 449.23 28.44 447.45 31.62 462.63 21.29 462.72" style="fill:#263238;fill-rule:evenodd"></polygon><polygon points="31.94 482.35 36.61 461.22 39.33 471.47 36.98 469.81 39.35 471.8 42.26 482.08 31.94 482.35" style="fill:#263238;fill-rule:evenodd"></polygon><polygon points="146.83 486.5 150.66 484.69 163.06 486.83 172.31 486.26 177.36 488.07 147 487.53 146.83 486.5" style="fill:#263238;fill-rule:evenodd"></polygon></g><g id="freepik--Plants--inject-184"><path d="M129.56,426.57c1.64-4,3.73-8.43,7.78-10.05a11.24,11.24,0,0,1,7-.19,33.36,33.36,0,0,1,6.53,2.75c-1.09,2.11-2.24,4.29-4.14,5.72-2.25,1.68-5.22,2.05-8,2s-5.64-.41-8.41,0" style="fill:#455a64"></path><path d="M124.33,394.38c-3.71-4.78-7.51-10.35-6.64-16.34a15.55,15.55,0,0,1,4.64-8.52,46.55,46.55,0,0,1,7.86-5.93c1.77,2.78,3.59,5.69,4,9,.45,3.87-1.18,7.69-3.18,11s-4.42,6.49-5.84,10.13" style="fill:#455a64"></path><path d="M394.75,165.66c1.67-5.09,3.88-10.64,8.71-13a13.89,13.89,0,0,1,8.55-.81,42,42,0,0,1,8.24,2.83c-1.17,2.68-2.4,5.46-4.62,7.36-2.62,2.25-6.23,2.95-9.67,3.14s-6.95,0-10.32.72" style="fill:#455a64"></path><path d="M444.15,84.57c-3-4.23-6.13-9.14-5.2-14.26a13.39,13.39,0,0,1,4.26-7.17,40.18,40.18,0,0,1,6.94-4.86c1.44,2.45,2.91,5,3.14,7.84.26,3.35-1.25,6.58-3.08,9.39s-4,5.44-5.34,8.52" style="fill:#455a64"></path><path d="M164.85,378.72a15.36,15.36,0,0,1-15.17,4.5c-1.07-.29-2.27-.9-2.39-2s1-2,2.11-2.52a18,18,0,0,1,14.37-.22,20.78,20.78,0,0,1-10.08-6.55c-1-1.19-1.88-2.87-1.09-4.2s2.59-1.37,4-1A12.14,12.14,0,0,1,165.69,378a11.43,11.43,0,0,1,5.46-11.85c1.56-.87,3.86-1.19,4.85.3a3.83,3.83,0,0,1,.1,3.15,14.65,14.65,0,0,1-8.19,9,12.78,12.78,0,0,1,14,.87c1.26,1,2.4,2.44,2.12,4-.36,2-2.7,2.88-4.71,3a16.75,16.75,0,0,1-13.46-5.35,9.53,9.53,0,0,1,1.69,8.7c-.6,1.93-2.45,3.88-4.37,3.25s-2.25-3-2.1-5a23.74,23.74,0,0,1,3.1-10" style="fill:#FF725E"></path><path d="M154.07,380.83a50.15,50.15,0,0,1,5.85-1.61,51.18,51.18,0,0,1,6.05-.35,13.33,13.33,0,0,0-6.14-.18A13.15,13.15,0,0,0,154.07,380.83Z" style="fill:#263238"></path><path d="M157.55,372.68a23.59,23.59,0,0,1,4.2,2.58c2.06,1.78,3.28,3.69,3.43,3.58a10.58,10.58,0,0,0-3.09-4A8,8,0,0,0,157.55,372.68Z" style="fill:#263238"></path><path d="M171.06,371.63a9,9,0,0,0-3.9,2.86,7.44,7.44,0,0,0-2.06,4.36,21.68,21.68,0,0,1,2.47-4A46.43,46.43,0,0,1,171.06,371.63Z" style="fill:#263238"></path><path d="M167.59,378.65a1.87,1.87,0,0,0-3.23-1.22,5.15,5.15,0,0,1,1,1.42,7.9,7.9,0,0,1,2.25-.2" style="fill:#fff"></path><path d="M178.81,382.52a6.34,6.34,0,0,0-1.75-1.29A19.37,19.37,0,0,0,167,378.61a6,6,0,0,0-2.16.27,37.22,37.22,0,0,1,7.24.87A36.81,36.81,0,0,1,178.81,382.52Z" style="fill:#263238"></path><path d="M442.23,118.74a15.66,15.66,0,0,1-16,2c-1-.47-2.12-1.28-2.06-2.4s1.38-1.88,2.53-2.19a18.39,18.39,0,0,1,14.5,2.17,21.07,21.07,0,0,1-9.05-8.26c-.81-1.36-1.42-3.2-.4-4.41s2.84-.94,4.24-.35a12.41,12.41,0,0,1,7.23,12.82,11.66,11.66,0,0,1,7.46-11c1.71-.62,4.08-.56,4.82,1.11a3.84,3.84,0,0,1-.42,3.18,14.9,14.9,0,0,1-9.74,7.73,13,13,0,0,1,14,3.21c1.1,1.19,2,2.85,1.46,4.38-.69,1.93-3.19,2.44-5.24,2.26a17.11,17.11,0,0,1-12.65-7.62,9.68,9.68,0,0,1,.25,9c-.92,1.84-3.1,3.49-4.93,2.54s-1.76-3.42-1.29-5.33a24.22,24.22,0,0,1,4.78-9.51" style="fill:#FF725E"></path><path d="M431,119.06a50.42,50.42,0,0,1,6.15-.64,54.85,54.85,0,0,1,6.15.65,13.66,13.66,0,0,0-6.15-1.2A13.43,13.43,0,0,0,431,119.06Z" style="fill:#263238"></path><path d="M435.9,111.44a24.59,24.59,0,0,1,3.79,3.3c1.77,2.13,2.68,4.26,2.85,4.17a10.71,10.71,0,0,0-2.44-4.52A8.28,8.28,0,0,0,435.9,111.44Z" style="fill:#263238"></path><path d="M449.66,112.64a9,9,0,0,0-4.4,2.23,7.63,7.63,0,0,0-2.8,4,22.46,22.46,0,0,1,3.15-3.62C447.65,113.58,449.72,112.81,449.66,112.64Z" style="fill:#263238"></path><path d="M445,119.12a2,2,0,0,0-.94-1.89,2,2,0,0,0-2.11.12,5.6,5.6,0,0,1,.76,1.6,7.89,7.89,0,0,1,2.29.17" style="fill:#fff"></path><path d="M455.64,124.88a6.73,6.73,0,0,0-1.55-1.59,19.42,19.42,0,0,0-4.55-2.82A19.1,19.1,0,0,0,444.4,119a6.39,6.39,0,0,0-2.22-.09,38.29,38.29,0,0,1,7.14,2.08C453.09,122.62,455.52,125,455.64,124.88Z" style="fill:#263238"></path></g><g id="freepik--Sun--inject-184"><path d="M281.57,99.16,299.29,83,306.63,106a48.48,48.48,0,0,0,51.17,33.8l23.75-2.54-7.42,23A49.48,49.48,0,0,0,396,218.13l20.7,12.11-19.35,14.18a49.47,49.47,0,0,0-15.8,59.77l9.75,22.13-23.89-.08A48.47,48.47,0,0,0,320,365.12L315,388.82l-19.3-14.31a47.84,47.84,0,0,0-60.94,3.14l-17.72,16.21-7.34-23.07A48.48,48.48,0,0,0,158.57,337l-23.75,2.54,7.42-23a49.48,49.48,0,0,0-21.86-57.83l-20.7-12.11L119,232.39a49.47,49.47,0,0,0,15.8-59.77l-9.74-22.13,23.88.08a48.47,48.47,0,0,0,47.43-38.88L201.33,88l19.3,14.31A47.84,47.84,0,0,0,281.57,99.16Z" style="fill:#FF725E"></path><path d="M281.57,99.16,299.29,83,306.63,106a48.48,48.48,0,0,0,51.17,33.8l23.75-2.54-7.42,23A49.48,49.48,0,0,0,396,218.13l20.7,12.11-19.35,14.18a49.47,49.47,0,0,0-15.8,59.77l9.75,22.13-23.89-.08A48.47,48.47,0,0,0,320,365.12L315,388.82l-19.3-14.31a47.84,47.84,0,0,0-60.94,3.14l-17.72,16.21-7.34-23.07A48.48,48.48,0,0,0,158.57,337l-23.75,2.54,7.42-23a49.48,49.48,0,0,0-21.86-57.83l-20.7-12.11L119,232.39a49.47,49.47,0,0,0,15.8-59.77l-9.74-22.13,23.88.08a48.47,48.47,0,0,0,47.43-38.88L201.33,88l19.3,14.31A47.84,47.84,0,0,0,281.57,99.16Z" style="opacity:0.30000000000000004"></path><path d="M259.17,103.69l3.07-7.37,2.5,7.58a22.32,22.32,0,0,0,37.91,7.81l5.3-6-.1,8a22.32,22.32,0,0,0,33.32,19.69l6.95-3.94L345.44,137a22.32,22.32,0,0,0,25.12,29.44l7.85-1.46-5,6.24a22.33,22.33,0,0,0,14.2,36l7.9,1.16-6.74,4.28a22.33,22.33,0,0,0,1.74,38.67l7.09,3.67-7.76,1.86A22.32,22.32,0,0,0,379,294l5.52,5.77-8-.76a22.33,22.33,0,0,0-22.38,31.59l3.35,7.25-7.27-3.3a22.32,22.32,0,0,0-31.42,22.6l.81,7.95-5.81-5.48a22.32,22.32,0,0,0-37.06,11.18l-1.81,7.77-3.71-7.06a22.32,22.32,0,0,0-38.68-1.46l-4.24,6.76-1.22-7.89A22.32,22.32,0,0,0,191,355l-6.21,5,1.41-7.86a22.31,22.31,0,0,0-29.62-24.91l-7.5,2.73,3.88-7A22.32,22.32,0,0,0,133,289.83l-8,.15,6-5.33a22.33,22.33,0,0,0-8.08-37.86l-7.61-2.45,7.36-3.11a22.33,22.33,0,0,0,4.65-38.43l-6.4-4.78,8-.57a22.32,22.32,0,0,0,16.87-34.83l-4.5-6.6,7.72,2a22.32,22.32,0,0,0,27.27-27.46l-2.11-7.71,6.64,4.45a22.32,22.32,0,0,0,34.71-17.12l.5-8,4.83,6.36A22.32,22.32,0,0,0,259.17,103.69Z" style="fill:#FF725E"></path><path d="M259.17,103.69l3.07-7.37,2.5,7.58a22.32,22.32,0,0,0,37.91,7.81l5.3-6-.1,8a22.32,22.32,0,0,0,33.32,19.69l6.95-3.94L345.44,137a22.32,22.32,0,0,0,25.12,29.44l7.85-1.46-5,6.24a22.33,22.33,0,0,0,14.2,36l7.9,1.16-6.74,4.28a22.33,22.33,0,0,0,1.74,38.67l7.09,3.67-7.76,1.86A22.32,22.32,0,0,0,379,294l5.52,5.77-8-.76a22.33,22.33,0,0,0-22.38,31.59l3.35,7.25-7.27-3.3a22.32,22.32,0,0,0-31.42,22.6l.81,7.95-5.81-5.48a22.32,22.32,0,0,0-37.06,11.18l-1.81,7.77-3.71-7.06a22.32,22.32,0,0,0-38.68-1.46l-4.24,6.76-1.22-7.89A22.32,22.32,0,0,0,191,355l-6.21,5,1.41-7.86a22.31,22.31,0,0,0-29.62-24.91l-7.5,2.73,3.88-7A22.32,22.32,0,0,0,133,289.83l-8,.15,6-5.33a22.33,22.33,0,0,0-8.08-37.86l-7.61-2.45,7.36-3.11a22.33,22.33,0,0,0,4.65-38.43l-6.4-4.78,8-.57a22.32,22.32,0,0,0,16.87-34.83l-4.5-6.6,7.72,2a22.32,22.32,0,0,0,27.27-27.46l-2.11-7.71,6.64,4.45a22.32,22.32,0,0,0,34.71-17.12l.5-8,4.83,6.36A22.32,22.32,0,0,0,259.17,103.69Z" style="fill:#fff;opacity:0.30000000000000004"></path><circle cx="258.19" cy="238.4" r="105.41" transform="translate(-92.96 252.39) rotate(-45)" style="fill:#FF725E"></circle><path d="M238.76,217.8c.72,3.49-4.75,7.56-12.22,9.09s-14.09-.07-14.8-3.57,4.75-7.57,12.21-9.09S238.05,214.3,238.76,217.8Z" style="fill:#fff;opacity:0.30000000000000004"></path><ellipse cx="317.03" cy="195" rx="13.79" ry="6.46" transform="translate(-32.62 67.42) rotate(-11.55)" style="fill:#fff;opacity:0.30000000000000004"></ellipse><path d="M288.44,188.69c-.82-5.49.47-13,6.71-14.74,6.53-1.8,10.69,5.81,13.17,10.48,1.51,2.85,5.82.32,4.31-2.52-2.05-3.87-4.26-7.69-7.82-10.37a12.69,12.69,0,0,0-11.33-2.31,14.29,14.29,0,0,0-8.42,7.46c-2,4.21-2.12,8.8-1.44,13.33a2.5,2.5,0,0,0,3.07,1.75,2.57,2.57,0,0,0,1.75-3.08Z" style="fill:#263238"></path><path d="M220.3,208.75c-1.33-5.4-1-13,5-15.47,6.28-2.6,11.26,4.54,14.16,8.94,1.76,2.68,6.09.17,4.31-2.52-2.4-3.66-5-7.38-8.76-9.73a12.78,12.78,0,0,0-11.92-1.15,14.34,14.34,0,0,0-7.38,8.08c-1.62,4.2-1.32,8.89-.26,13.18.76,3.13,5.59,1.8,4.82-1.33Z" style="fill:#263238"></path><path d="M252.41,199.09l26.56-10s3.53,14-8.07,17.94S252.41,199.09,252.41,199.09Z" style="fill:#263238"></path><path d="M274.73,202.84c-1.67-2-4.76-2.43-7.2-1.5-3.71,1.42-5.16,5.84-5.16,5.84a11.93,11.93,0,0,0,9.53-.57,10.45,10.45,0,0,0,3.8-2.54" style="fill:#FF725E"></path><g style="opacity:0.30000000000000004"><path d="M324.18,305.59c-16,11.17-34,20.15-53.27,23.14-29,4.47-59.48-5.44-81.28-25-21-18.85-33.85-46.1-36.48-74.19-.25,2.92-.38,5.88-.38,8.86a105.43,105.43,0,0,0,207.68,25.67c0-.93.08-1.87.1-2.81C355.23,280,340.18,294.45,324.18,305.59Z"></path></g><path d="M363.42,225.48s-.05-.18-.11-.54-.15-.91-.26-1.59-.26-1.58-.42-2.6c-.08-.51-.17-1.06-.26-1.65s-.26-1.21-.41-1.86c-.29-1.32-.62-2.78-1-4.38s-1-3.28-1.47-5.12-1.27-3.75-2-5.8-1.66-4.14-2.61-6.35c-.24-.55-.49-1.1-.73-1.67s-.56-1.11-.84-1.67c-.58-1.12-1.16-2.27-1.76-3.44s-1.31-2.31-2-3.49-1.38-2.38-2.14-3.58L345,178.17c-.42-.6-.81-1.22-1.25-1.82l-1.37-1.78c-.93-1.19-1.83-2.42-2.82-3.62l-3.09-3.55c-1-1.23-2.19-2.33-3.33-3.5s-2.26-2.37-3.54-3.45l-3.75-3.36-4.05-3.19a97.92,97.92,0,0,0-38.52-18l-5-1-5-.72c-1.64-.29-3.29-.36-4.92-.5s-3.22-.32-4.82-.3l-4.71-.1c-1.55,0-3.07.11-4.58.16l-2.24.09c-.74,0-1.47.15-2.2.21l-4.3.44c-1.4.19-2.77.44-4.12.66s-2.67.39-3.95.72l-3.76.85c-.62.15-1.23.27-1.82.43l-1.75.52c-2.31.68-4.53,1.27-6.55,2.07s-4,1.37-5.72,2.19-3.39,1.45-4.87,2.16l-4,2.06c-.59.31-1.17.59-1.69.88l-1.43.86-2.25,1.35-1.4.82c-.31.18-.48.26-.48.26l.46-.31,1.36-.86,2.23-1.39,1.43-.88c.51-.31,1.08-.59,1.68-.91l4-2.1c1.47-.72,3.12-1.41,4.87-2.2s3.69-1.47,5.72-2.24,4.24-1.42,6.56-2.12l1.75-.52c.6-.17,1.21-.29,1.82-.44l3.78-.88c1.28-.33,2.62-.49,4-.74s2.73-.48,4.14-.67l4.31-.45c.73-.07,1.46-.17,2.21-.22l2.25-.09c1.51-.06,3-.16,4.6-.18l4.73.09c1.6,0,3.21.17,4.84.29s3.29.21,4.94.49l5,.72,5.06,1a98,98,0,0,1,38.72,18.09l4.06,3.2,3.77,3.39c1.28,1.08,2.39,2.31,3.55,3.47s2.32,2.28,3.33,3.52l3.1,3.57c1,1.21,1.9,2.45,2.82,3.64l1.37,1.79c.44.61.84,1.23,1.26,1.84l2.42,3.59c.75,1.2,1.43,2.42,2.13,3.6s1.42,2.32,2,3.51,1.18,2.33,1.76,3.46c.27.57.58,1.12.83,1.68s.48,1.13.72,1.68c.95,2.23,1.92,4.32,2.59,6.39s1.49,4,2,5.82,1,3.56,1.43,5.15.66,3.07.94,4.4c.14.66.29,1.28.39,1.87s.16,1.14.23,1.66c.15,1,.27,1.89.37,2.6l.21,1.6C363.41,225.29,363.42,225.48,363.42,225.48Z" style="fill:#fff"></path><path d="M233.84,188.79a18.82,18.82,0,0,0-14,1.15,5.76,5.76,0,0,1,1.82-1.12,14.56,14.56,0,0,1,5-1.32,15.14,15.14,0,0,1,5.15.47A5.77,5.77,0,0,1,233.84,188.79Z" style="fill:#fff"></path><path d="M275.51,187.06a15.07,15.07,0,0,0-2.68,1,14,14,0,0,0-2.11,2,4.31,4.31,0,0,1,4.79-3Z" style="fill:#fff"></path><path d="M299.82,167.93a31.51,31.51,0,0,0-5.51-.09,32.09,32.09,0,0,0-5.34,1.39,10.53,10.53,0,0,1,5.27-1.91A10.35,10.35,0,0,1,299.82,167.93Z" style="fill:#fff"></path><path d="M255.72,226.21s-.43-.73-1.23-2a31.69,31.69,0,0,0-3.91-5.05,32.25,32.25,0,0,0-7.43-5.83,30,30,0,0,0-22.4-3.15,31.89,31.89,0,0,0-8.75,3.55,31.43,31.43,0,0,0-5.16,3.78c-1.12,1-1.7,1.63-1.73,1.59a2.6,2.6,0,0,1,.38-.47c.28-.29.65-.76,1.21-1.27a28.89,28.89,0,0,1,5.11-4,31.49,31.49,0,0,1,8.83-3.7,29.93,29.93,0,0,1,22.75,3.2,31.51,31.51,0,0,1,7.46,6,29,29,0,0,1,3.82,5.2c.4.65.62,1.2.81,1.55A2.51,2.51,0,0,1,255.72,226.21Z" style="fill:#fff"></path><path d="M331.88,188.1c-.06.1-1.54-.92-4.2-1.95a21.51,21.51,0,0,0-2.22-.72c-.79-.25-1.68-.4-2.6-.59a29.26,29.26,0,0,0-6.1-.32,28.55,28.55,0,0,0-6,1.07,23.62,23.62,0,0,0-2.51.9,18.11,18.11,0,0,0-2.11,1c-2.52,1.34-3.86,2.53-3.93,2.44a5.58,5.58,0,0,1,.93-.84,9.28,9.28,0,0,1,1.17-.89,18.49,18.49,0,0,1,1.65-1,19,19,0,0,1,2.12-1.06,24.08,24.08,0,0,1,2.54-1,27.59,27.59,0,0,1,6.13-1.13,28.2,28.2,0,0,1,6.21.37,22.17,22.17,0,0,1,2.64.65,17.12,17.12,0,0,1,2.24.79,17.36,17.36,0,0,1,1.76.83,10,10,0,0,1,1.28.74A5.21,5.21,0,0,1,331.88,188.1Z" style="fill:#fff"></path><path d="M276.12,203.68a4.07,4.07,0,0,1-.75.81,13.84,13.84,0,0,1-2.43,1.8,13.61,13.61,0,0,1-9.71,1.61,15.38,15.38,0,0,1-8.54-5,13.75,13.75,0,0,1-1.72-2.48,3.9,3.9,0,0,1-.44-1,27.09,27.09,0,0,0,2.44,3.25,15.69,15.69,0,0,0,8.36,4.71,13.8,13.8,0,0,0,9.43-1.42A34.71,34.71,0,0,0,276.12,203.68Z" style="fill:#263238"></path></g><g id="freepik--Clouds--inject-184"><path d="M190.85,92.55c-1.6-4.29-3.24-8.63-5.93-12.32s-6.65-6.72-11.19-7.27-9.56,1.89-11,6.22c-.65-9.75-2-19.76-6.92-28.23s-14-15.11-23.74-14.52c-9.2.56-17.08,7.4-21.45,15.51s-5.88,17.41-7.32,26.51c-3.48-4.28-10.85-2.93-14.49,1.22s-4.56,10-5.33,15.41h107.9Z" style="fill:#fafafa"></path><path d="M190.85,92.55s.06.2.15.62.22,1.06.39,1.9v.06h-.06c-10.26.1-52.71.18-107.9.21h-.29l0-.29a60.73,60.73,0,0,1,1.49-7.84,19.69,19.69,0,0,1,3.61-7.36,11.91,11.91,0,0,1,7.23-4.12,9.77,9.77,0,0,1,4.3.2,7.19,7.19,0,0,1,3.64,2.36l-.45.12c.29-1.79.61-3.73.92-5.67a84,84,0,0,1,3.89-15.33,44.54,44.54,0,0,1,3.34-7,34,34,0,0,1,4.63-6.07,26.5,26.5,0,0,1,12.57-7.59,21.21,21.21,0,0,1,13.91,1.41,29.89,29.89,0,0,1,10.55,8.17,37,37,0,0,1,6.12,11c2.76,7.64,3.46,15.18,3.93,21.88l-.35,0a8.74,8.74,0,0,1,2.72-3.84,10.83,10.83,0,0,1,3.95-2.08,11.87,11.87,0,0,1,8,.54,17.44,17.44,0,0,1,5.77,4,23.59,23.59,0,0,1,3.53,4.73,49.31,49.31,0,0,1,3.39,7.4c.31.86.56,1.52.73,2s.22.68.22.68-.1-.23-.27-.67l-.78-2a51.74,51.74,0,0,0-3.46-7.33,23.76,23.76,0,0,0-3.53-4.66A17.4,17.4,0,0,0,177.1,74a11.56,11.56,0,0,0-7.82-.49,9.47,9.47,0,0,0-6.42,5.73l-.29.82-.06-.87c-.49-6.68-1.21-14.19-4-21.76a37,37,0,0,0-6.06-10.81,29.5,29.5,0,0,0-10.4-8,20.77,20.77,0,0,0-13.6-1.37,25.92,25.92,0,0,0-12.32,7.47,33.43,33.43,0,0,0-4.56,6,43.48,43.48,0,0,0-3.29,6.92,82.39,82.39,0,0,0-3.86,15.24c-.32,1.94-.64,3.87-.93,5.66l-.09.58-.37-.45a6.68,6.68,0,0,0-3.39-2.19,9.27,9.27,0,0,0-4.06-.19,11.39,11.39,0,0,0-6.92,3.94,19.15,19.15,0,0,0-3.52,7.17,60.07,60.07,0,0,0-1.48,7.77l-.25-.29c55.19,0,97.64.11,107.9.21l0,0c-.16-.84-.27-1.47-.35-1.91S190.85,92.55,190.85,92.55Z" style="fill:#263238"></path><path d="M472.28,297.88l-.38,0,0-.06c.69-1.46,12.89-27.8.67-33.79-12.58-6.16-30.74,6.13-30.74,6.13s11.44-50.24-20.89-58.4-55.07,50.73-55.07,50.73-15-18.3-20.94,12.61c0,0-39-12.56-41.95,30.65,0,0-12.95-8-11.49,3.79l.3,1.82L473,307.7S481.1,297.57,472.28,297.88Z" style="fill:#fafafa;fill-rule:evenodd"></path><path d="M472.28,297.88s.29,0,.87,0a7.41,7.41,0,0,1,1.08.13,3.17,3.17,0,0,1,1.38.62,2.3,2.3,0,0,1,.81,1.72,5.78,5.78,0,0,1-.43,2.31,20.27,20.27,0,0,1-3,5.1l0,0h0l-181.12,3.85h-.22l0-.21a16.37,16.37,0,0,1-.37-4.57,5.49,5.49,0,0,1,.7-2.3,3.41,3.41,0,0,1,2-1.5,8.38,8.38,0,0,1,4.83.44,22.66,22.66,0,0,1,4.44,2.07l-.39.2a55.82,55.82,0,0,1,2.18-12.21,31.62,31.62,0,0,1,5.86-11.15,26,26,0,0,1,4.74-4.32,27.59,27.59,0,0,1,5.73-3,34.77,34.77,0,0,1,12.82-1.92A44.32,44.32,0,0,1,345,274.87l-.33.2a58.68,58.68,0,0,1,2.23-8.4,20.06,20.06,0,0,1,4.31-7.47,7.31,7.31,0,0,1,8.06-1.82,17.28,17.28,0,0,1,6.8,5l-.44.07a150.65,150.65,0,0,1,9.71-19.59,106.66,106.66,0,0,1,12.32-17.15,60,60,0,0,1,7.45-7.09,41.75,41.75,0,0,1,8.54-5.33,26.18,26.18,0,0,1,19.06-1.18,26.91,26.91,0,0,1,8.34,4.23,27.57,27.57,0,0,1,6.17,6.69,41.41,41.41,0,0,1,5.9,16.24,78.59,78.59,0,0,1,.75,16.16A98,98,0,0,1,442,270.22l-.27-.18a55.64,55.64,0,0,1,13.75-6.41,27.35,27.35,0,0,1,13.4-1,13.63,13.63,0,0,1,5.56,2.5,9.57,9.57,0,0,1,3,4.77,18,18,0,0,1,.66,5.15,33,33,0,0,1-.38,4.7,56.23,56.23,0,0,1-1.8,7.73c-.67,2.2-1.35,4-1.93,5.55-1.17,3-2,4.61-2.07,4.81h0l0,.07h0l.38,0-.38,0h0l0-.06h0c.08-.22.84-1.84,2-4.84.57-1.51,1.23-3.36,1.88-5.57a56.27,56.27,0,0,0,1.76-7.71,23.68,23.68,0,0,0-.32-9.75,9.35,9.35,0,0,0-2.91-4.64,13.29,13.29,0,0,0-5.46-2.42,27,27,0,0,0-13.25,1,55.49,55.49,0,0,0-13.64,6.4l-.35.23.08-.42a97.13,97.13,0,0,0,1.83-14.76,77.83,77.83,0,0,0-.78-16.08,41.2,41.2,0,0,0-5.85-16.07,27.21,27.21,0,0,0-6.08-6.56,26.26,26.26,0,0,0-8.21-4.15,25.64,25.64,0,0,0-18.72,1.18,40.48,40.48,0,0,0-8.44,5.27,59,59,0,0,0-7.38,7,105.86,105.86,0,0,0-12.25,17.08,150.69,150.69,0,0,0-9.67,19.51L366,263l-.28-.32a16.74,16.74,0,0,0-6.57-4.8,6.77,6.77,0,0,0-7.53,1.7,19.59,19.59,0,0,0-4.18,7.27,58.32,58.32,0,0,0-2.21,8.33l-.06.28-.27-.08a44.06,44.06,0,0,0-10.81-1.67,34,34,0,0,0-12.62,1.89,26.89,26.89,0,0,0-5.61,2.91,25.93,25.93,0,0,0-4.64,4.23,31.19,31.19,0,0,0-5.77,11,55.81,55.81,0,0,0-2.16,12.09l0,.41-.36-.21a23.34,23.34,0,0,0-4.33-2,8.08,8.08,0,0,0-4.53-.44,3,3,0,0,0-1.68,1.29,5,5,0,0,0-.63,2.09,16.49,16.49,0,0,0,.36,4.43l-.25-.21L473,307.62l-.07,0a20.63,20.63,0,0,0,3-5,6,6,0,0,0,.44-2.26,2.22,2.22,0,0,0-.76-1.67,4.26,4.26,0,0,0-2.41-.77Z" style="fill:#263238"></path><path d="M165.22,336.64c-1.51-4-3.05-8.13-5.59-11.61s-6.26-6.33-10.54-6.85-9,1.78-10.41,5.86c-.62-9.19-1.92-18.62-6.52-26.6S119,283.19,109.78,283.75c-8.67.53-16.09,7-20.22,14.62s-5.54,16.41-6.89,25c-3.29-4-10.23-2.77-13.66,1.15s-4.3,9.37-5,14.52H165.69Z" style="fill:#fafafa"></path><path d="M165.22,336.64s.06.19.14.59.21,1,.37,1.8v.05h-.05c-9.68.1-49.69.18-101.71.21h-.29l0-.29a57.19,57.19,0,0,1,1.41-7.39,18.66,18.66,0,0,1,3.4-6.94,11.24,11.24,0,0,1,6.83-3.89,9.25,9.25,0,0,1,4,.18,6.87,6.87,0,0,1,3.45,2.24l-.46.12c.28-1.69.57-3.52.87-5.35A79.07,79.07,0,0,1,87,303.52a41.62,41.62,0,0,1,3.14-6.6,32.3,32.3,0,0,1,4.37-5.72A24.92,24.92,0,0,1,106.32,284a20,20,0,0,1,13.12,1.33,28.15,28.15,0,0,1,9.95,7.71,35.07,35.07,0,0,1,5.77,10.33c2.6,7.2,3.25,14.31,3.69,20.62l-.34,0a8.27,8.27,0,0,1,2.56-3.63,10.24,10.24,0,0,1,3.73-2,11.15,11.15,0,0,1,7.56.51,16.46,16.46,0,0,1,5.44,3.79,22.81,22.81,0,0,1,3.34,4.46,48.5,48.5,0,0,1,3.19,7c.29.81.52,1.43.68,1.86s.21.64.21.64L165,336c-.17-.43-.41-1-.73-1.85a49.43,49.43,0,0,0-3.26-6.91,22.59,22.59,0,0,0-3.34-4.39,16.37,16.37,0,0,0-5.37-3.7,10.93,10.93,0,0,0-7.37-.46,9,9,0,0,0-6,5.39l-.28.82-.06-.86c-.47-6.3-1.15-13.38-3.74-20.51A34.73,34.73,0,0,0,129,293.37a27.74,27.74,0,0,0-9.79-7.56,19.6,19.6,0,0,0-12.82-1.29,24.5,24.5,0,0,0-11.6,7,32.5,32.5,0,0,0-4.3,5.63,41.48,41.48,0,0,0-3.1,6.52,79.06,79.06,0,0,0-3.63,14.36l-.88,5.34-.09.57-.37-.45a6.33,6.33,0,0,0-3.18-2.06,8.84,8.84,0,0,0-3.83-.17A10.74,10.74,0,0,0,68.94,325a18,18,0,0,0-3.31,6.75,56.53,56.53,0,0,0-1.4,7.32l-.25-.29c52,0,92,.11,101.71.21l-.05.05q-.21-1.19-.33-1.8Z" style="fill:#263238"></path><path d="M319,425.16a33.42,33.42,0,0,0-3.92-8.14,11.27,11.27,0,0,0-7.39-4.81c-3-.37-6.33,1.25-7.31,4.11-.43-6.44-1.34-13.06-4.57-18.65s-9.24-10-15.69-9.6c-6.08.37-11.29,4.89-14.18,10.25s-3.89,11.51-4.84,17.53c-2.3-2.83-7.17-1.94-9.57.8s-3,6.58-3.53,10.19H319.3Z" style="fill:#fafafa"></path><path d="M319,425.16a3.07,3.07,0,0,1,.11.41l.26,1.26,0,.06h-.06c-6.79.1-34.85.17-71.33.2h-.29l0-.29a40.1,40.1,0,0,1,1-5.19,13.32,13.32,0,0,1,2.41-4.89,7.9,7.9,0,0,1,4.83-2.76,6.52,6.52,0,0,1,2.88.13,4.84,4.84,0,0,1,2.45,1.59l-.45.12c.19-1.18.4-2.46.61-3.75A54.9,54.9,0,0,1,264,401.9a24.77,24.77,0,0,1,5.29-8.66,17.64,17.64,0,0,1,8.35-5,14.06,14.06,0,0,1,9.25.94,19.67,19.67,0,0,1,7,5.42,24.76,24.76,0,0,1,4.06,7.27,52.18,52.18,0,0,1,2.58,14.48l-.34,0a6.51,6.51,0,0,1,4.45-3.95,7.9,7.9,0,0,1,5.33.36,11.66,11.66,0,0,1,3.83,2.68,15.79,15.79,0,0,1,2.33,3.14,32.38,32.38,0,0,1,2.23,4.9l.47,1.31c.1.3.14.45.14.45s-.07-.14-.19-.43l-.52-1.3a34.86,34.86,0,0,0-2.3-4.83,15.26,15.26,0,0,0-2.34-3.07,11.47,11.47,0,0,0-3.76-2.59,7.65,7.65,0,0,0-5.13-.31,6.22,6.22,0,0,0-4.21,3.75l-.28.82-.06-.86A52.22,52.22,0,0,0,297.55,402a24.31,24.31,0,0,0-4-7.13,19.54,19.54,0,0,0-6.85-5.28,13.68,13.68,0,0,0-8.94-.89,17,17,0,0,0-8.1,4.91,24.32,24.32,0,0,0-5.17,8.5,54.4,54.4,0,0,0-2.55,10.05c-.21,1.28-.42,2.56-.61,3.75l-.1.57-.36-.45a5,5,0,0,0-4.84-1.54,7.41,7.41,0,0,0-4.52,2.57,12.57,12.57,0,0,0-2.31,4.71,38.17,38.17,0,0,0-1,5.12l-.25-.28c36.48,0,64.54.1,71.33.2l-.05.06c-.09-.55-.17-1-.22-1.27S319,425.16,319,425.16Z" style="fill:#263238"></path></g></svg>
